# xmcd
#
# Track frame offsets:
#	150
#	9444
#	20143
#	29775
#
# Disc length: 530 seconds
#
# Revision: 0
# Processed by: cddbd v1.5.1PL0 Copyright (c) Steve Scherf et al.
# Submitted via: dBpowerAMP V4.0
#
DISCID=2d021004
DTITLE=Slim Sandy - Don't Need Nothin' (EP)
DYEAR=2004
DGENRE=Retro
TTITLE0=Don't Need Nothin'
TTITLE1=Rock It All Night
TTITLE2=Way You Dance
TTITLE3=California Blues
EXTD=
EXTT0=
EXTT1=
EXTT2=
EXTT3=
PLAYORDER=
